<svg id="Layer_1" data-name="Layer 1" xmlns="http://www.w3.org/2000/svg" viewBox="0 0 630.86 370.07"><title>Untitled-1</title><path id="_Path_" data-name="&lt;Path&gt;" d="M600.77,331.55C588.85,245.93,515.38,180,426.47,180A176.07,176.07,0,0,0,260.34,297.8c-3.27-.27-6.57-.44-9.91-.44A117.35,117.35,0,0,0,133.08,414.71c0,1.18,0,2.34.09,3.51-1.65-.14-3.3-.25-5-.25a57,57,0,0,0,0,114.1c1.65,0,3.27-.11,4.89-.25v.25H582.94a101.05,101.05,0,0,0,17.83-200.52Z" transform="translate(-62.14 -171)" style="fill:none;stroke:#0af;stroke-miterlimit:10;stroke-width:18px"/><rect x="52.52" y="351.08" width="483.09" height="15.92" style="fill:#0af"/><text transform="translate(155.74 270.82)" style="font-size:175.15399169921875px;fill:#0af;font-family:Gentona-ExtraBoldDEMO, Gentona;font-weight:700"><tspan style="letter-spacing:-0.004990028654333537em">C</tspan><tspan x="105.79" y="0" style="letter-spacing:-0.015003538669063182em">D</tspan><tspan x="218.24" y="0">H</tspan></text><rect x="10.63" y="304.02" width="162.99" height="6.52" style="fill:#0af"/><circle cx="180.14" cy="307.28" r="9.78" style="fill:#0af"/><rect x="69.01" y="326.84" width="169.81" height="6.52" style="fill:#0af"/><rect x="104.14" y="486.61" width="34.33" height="6.52" transform="translate(319.78 -113.29) rotate(45)" style="fill:#0af"/><circle cx="244.53" cy="331.73" r="9.78" style="fill:#0af"/><rect x="123.82" y="463.93" width="31.04" height="6.52" transform="translate(506.08 528.02) rotate(135)" style="fill:#0af"/><rect x="148.03" y="453.68" width="39.94" height="6.52" transform="translate(-67.72 -168.91) rotate(-0.7)" style="fill:#0af"/><circle cx="134.64" cy="285.94" r="9.78" style="fill:#0af"/><rect x="423.62" y="104.94" width="101.25" height="6.52" style="fill:#0af"/><circle cx="418.16" cy="108.45" r="9.78" style="fill:#0af"/><rect x="480.65" y="288.08" width="32.87" height="6.52" transform="translate(992.44 -25.14) rotate(135)" style="fill:#0af"/><rect x="361.41" y="127.76" width="64.18" height="6.52" style="fill:#0af"/><circle cx="354.91" cy="131.02" r="9.78" style="fill:#0af"/><rect x="536.86" y="263.71" width="32.87" height="6.52" transform="translate(288.69 -484.05) rotate(45)" style="fill:#0af"/><rect x="402.74" y="82.06" width="79.13" height="6.52" style="fill:#0af"/><circle cx="395.42" cy="85.32" r="9.78" style="fill:#0af"/></svg>